<?xml version="1.0" encoding="utf-8" ?><svg xmlns="http://www.w3.org/2000/svg" xmlns:xlink="http://www.w3.org/1999/xlink" width="500" height="500" viewBox="0 0 500 500"><path fill="#E5F7FD" d="M224.341 0L275.444 0C277.495 0.84135 282.088 1.02185 284.493 1.3028C287.566 1.67683 290.63 2.13092 293.68 2.66461C303.635 4.4002 315.707 7.44388 325.437 10.4765C390.089 30.9378 443.746 76.6278 474.249 137.193C484.073 156.786 491.31 177.572 495.779 199.03C496.647 203.338 497.403 207.668 498.045 212.016C498.326 214.035 499.391 223.402 500 224.895L500 275.927C499.245 278.009 499.055 281.791 498.76 284.078C496.979 297.862 493.951 311.315 489.766 324.588C472.667 379.153 437.486 426.264 390.022 458.152C363.944 475.647 335.09 488.246 304.411 495.081C300.073 496.045 295.712 496.904 291.332 497.658C288.999 498.046 277.963 499.52 276.895 500L222.66 500C221.096 499.372 215.092 498.631 213.03 498.307C208.295 497.586 203.578 496.754 198.883 495.814C181.789 492.287 165.121 486.947 149.16 479.885C83.5443 451.181 33.3408 395.781 11.2188 327.664C7.61542 316.623 4.7863 305.344 2.75202 293.909C2.19366 290.744 1.69604 287.568 1.25943 284.383C1.00075 282.429 0.692434 277.245 0 275.698L0 223.34C0.63794 221.918 1.05335 215.095 1.37661 212.833C1.9694 208.642 2.69245 204.471 3.5447 200.325C6.91198 183.612 11.9997 167.292 18.7267 151.626C47.1199 85.0107 102.863 33.8774 171.675 11.3256C182.488 7.89936 193.499 5.13712 204.649 3.05434C207.742 2.45751 210.85 1.94336 213.971 1.51244C216.221 1.20384 222.693 0.777402 224.341 0Z"/><path fill="#1D405B" d="M16.7789 280.336C5.13289 190.666 45.9544 102.264 121.766 52.9798C197.578 3.69539 294.939 2.26586 372.165 49.3032C449.391 96.3406 492.79 183.505 483.782 273.479C482.659 284.691 480.732 295.809 478.014 306.745C473.525 324.811 466.906 342.28 458.296 358.784C457.068 361.139 455.8 363.472 454.493 365.783C451.607 370.885 448.532 375.877 445.273 380.749C405.055 440.878 339.39 479.141 267.248 484.484C195.106 489.827 124.521 461.655 75.8834 408.107C72.7146 404.618 69.6514 401.035 66.698 397.362C53.333 380.741 42.2923 362.378 33.8797 342.779C33.8039 342.603 33.7284 342.426 33.6531 342.25C30.181 334.106 27.1718 325.772 24.6398 317.289C21.0323 305.202 18.4035 292.844 16.7789 280.336Z"/><path fill="#62C2D9" d="M70.802 328.261C76.7872 325.633 82.8005 322.896 89.0291 321.126C117.714 312.971 148.409 315.693 176.827 323.595C182.617 325.205 188.452 326.502 194.243 328.336C200.695 330.375 207.124 332.487 213.528 334.671C219.595 336.785 225.771 339.174 231.987 340.71C241.545 344.528 250.994 347.836 260.791 350.847C321.47 369.496 388.864 382.678 450.554 360.903C452.576 360.19 456.252 358.507 458.296 358.784C457.068 361.139 455.8 363.472 454.493 365.783C451.607 370.885 448.532 375.877 445.273 380.749C405.055 440.878 339.39 479.141 267.248 484.484C195.106 489.827 124.521 461.655 75.8834 408.107C72.7146 404.618 69.6514 401.035 66.698 397.362C53.333 380.741 42.2923 362.378 33.8797 342.779C33.8039 342.603 33.7284 342.426 33.6531 342.25C34.4185 341.926 34.255 341.93 34.8508 341.581C38.2665 339.413 43.2442 339.049 46.8552 337.527C54.0564 334.491 64.2033 332.136 70.802 328.261Z"/><defs><linearGradient id="gradient_0" gradientUnits="userSpaceOnUse" x1="233.15063" y1="489.34644" x2="278.33792" y2="332.84543"><stop offset="0" stop-color="#085379"/><stop offset="1" stop-color="#0083B2"/></linearGradient></defs><path fill="url(#gradient_0)" d="M108.899 408.192C113.442 409.494 118.333 410.341 122.938 411.39C173.543 422.917 226.239 427.224 277.249 415.462C283.087 414.116 288.805 412.421 294.617 410.878L335.565 399.759C357.711 393.741 380.122 388.745 402.726 384.784C413.671 382.972 424.201 381.511 435.282 380.908C437.839 380.768 442.858 380.288 445.273 380.749C405.055 440.878 339.39 479.141 267.248 484.484C195.106 489.827 124.521 461.655 75.8834 408.107C80.754 405.312 105.657 409.818 108.899 408.192Z"/><path fill="#1FA0C0" d="M33.8797 342.779C35.6271 342.027 49.7686 343.992 52.9214 344.364C87.3384 348.39 121.366 355.236 154.663 364.833C189.922 375.214 224.638 388.698 260.986 394.422C266.705 395.323 272.401 396.25 278.183 396.606C294.896 397.769 311.686 397.159 328.271 394.788C340.186 392.97 351.528 390.169 363.241 387.406C388.922 381.35 414.412 374.422 440.15 368.629C444.18 367.722 450.556 366.016 454.493 365.783C451.607 370.885 448.532 375.877 445.273 380.749C442.858 380.288 437.839 380.768 435.282 380.908C424.201 381.511 413.671 382.972 402.726 384.784C380.122 388.745 357.711 393.741 335.565 399.759L294.617 410.878C288.805 412.421 283.087 414.116 277.249 415.462C226.239 427.224 173.543 422.917 122.938 411.39C118.333 410.341 113.442 409.494 108.899 408.192C105.657 409.818 80.754 405.312 75.8834 408.107C72.7146 404.618 69.6514 401.035 66.698 397.362C53.333 380.741 42.2923 362.378 33.8797 342.779Z"/><path fill="#00729D" d="M66.698 397.362C67.3603 397.276 67.8116 397.245 68.473 397.4C78.7162 399.798 88.8223 402.768 99.0438 405.267C102.273 406.056 105.868 406.886 108.899 408.192C105.657 409.818 80.754 405.312 75.8834 408.107C72.7146 404.618 69.6514 401.035 66.698 397.362Z"/><path fill="#94D8E6" d="M16.7789 280.336C19.4265 279.946 23.1699 279.063 25.903 278.53C31.933 277.328 37.9935 276.283 44.0781 275.397C94.3851 268.233 146.599 267.752 196.255 279.366C232.566 287.859 268.319 297.028 305.719 299.591C314.599 300.2 323.304 301.035 332.258 300.985C348.24 300.917 364.196 299.668 379.994 297.249C400.809 293.942 421.734 288.434 442.159 283.262C455.986 279.804 469.862 276.543 483.782 273.479C482.659 284.691 480.732 295.809 478.014 306.745C473.525 324.811 466.906 342.28 458.296 358.784C456.252 358.507 452.576 360.19 450.554 360.903C388.864 382.678 321.47 369.496 260.791 350.847C250.994 347.836 241.545 344.528 231.987 340.71C225.771 339.174 219.595 336.785 213.528 334.671C207.124 332.487 200.695 330.375 194.243 328.336C188.452 326.502 182.617 325.205 176.827 323.595C148.409 315.693 117.714 312.971 89.0291 321.126C82.8005 322.896 76.7872 325.633 70.802 328.261C64.2033 332.136 54.0564 334.491 46.8552 337.527C43.2442 339.049 38.2665 339.413 34.8508 341.581C34.255 341.93 34.4185 341.926 33.6531 342.25C30.181 334.106 27.1718 325.772 24.6398 317.289C21.0323 305.202 18.4035 292.844 16.7789 280.336Z"/><path fill="#78D1E6" d="M231.987 340.71C233.58 340.049 237.045 339.699 238.897 339.389C242.175 338.84 245.444 338.236 248.701 337.577C262.824 334.671 276.89 330.511 290.856 326.963C339.384 314.675 388.525 301.745 439.004 302.651C451.479 302.875 465.787 304.782 478.014 306.745C473.525 324.811 466.906 342.28 458.296 358.784C456.252 358.507 452.576 360.19 450.554 360.903C388.864 382.678 321.47 369.496 260.791 350.847C250.994 347.836 241.545 344.528 231.987 340.71Z"/><path fill="#78D1E6" d="M24.6398 317.289C28.1754 317.343 68.4381 326.681 70.802 328.261C64.2033 332.136 54.0564 334.491 46.8552 337.527C43.2442 339.049 38.2665 339.413 34.8508 341.581C34.255 341.93 34.4185 341.926 33.6531 342.25C30.181 334.106 27.1718 325.772 24.6398 317.289Z"/><path fill="#E5F7FD" d="M87.7709 232.84C66.0577 217.817 55.2856 191.373 60.3207 165.454C65.3559 139.535 85.2447 119.048 111.003 113.247C136.762 107.446 163.513 117.43 179.172 138.689C181.634 139.099 185.97 145.205 187.575 147.376C198.331 161.922 201.794 181.287 198.776 199.02C196.007 215.548 186.798 230.303 173.168 240.051C158.082 250.697 139.649 254.146 121.605 250.963C111.391 249.14 101.755 244.921 93.4891 238.651C91.0647 236.824 89.2333 235.509 87.7709 232.84Z"/><path fill="#6D889C" d="M179.172 138.689C181.634 139.099 185.97 145.205 187.575 147.376C198.331 161.922 201.794 181.287 198.776 199.02C196.007 215.548 186.798 230.303 173.168 240.051C158.082 250.697 139.649 254.146 121.605 250.963C111.391 249.14 101.755 244.921 93.4891 238.651C91.0647 236.824 89.2333 235.509 87.7709 232.84C114.507 251.338 150.697 247.799 173.343 224.472C195.989 201.144 198.454 164.865 179.172 138.689Z"/><path fill="#1D405B" d="M105.174 208.99C102.605 207.689 99.5149 204.158 97.9772 201.782C87.41 185.273 89.2246 157.031 106.711 145.69C119.398 137.462 142.828 138.877 151.566 152.387C158.933 160.996 160.185 171.77 159.541 182.562C158.315 203.076 142.879 217.583 122.124 215.415C115.887 214.763 109.941 213.324 105.174 208.99Z"/><path fill="#6D889C" d="M105.174 208.99C102.605 207.689 99.5149 204.158 97.9772 201.782C87.41 185.273 89.2246 157.031 106.711 145.69C119.398 137.462 142.828 138.877 151.566 152.387C149.592 152.32 145.65 150.186 143.151 149.612C132.587 147.184 120.821 148.691 112.183 155.706C99.1829 166.265 97.2922 186.866 102.332 201.918C102.985 203.868 104.991 207.199 105.174 208.99Z"/><path fill="#E5F7FD" d="M360.661 113.789L397.113 113.798C398.054 116.579 399.06 119.337 400.129 122.071C401.622 121.753 403.791 121.803 405.336 121.893L452.034 250.979L418.693 251.016C418.026 248.227 416.878 245.721 416.181 243.039L410.432 243.014C409.49 239.289 406.733 231.857 405.428 228.131C394.311 228.317 383.147 228.122 372.027 228.197C369.019 228.217 365.828 228.268 362.835 228.086C360.302 235.742 357.73 243.385 355.12 251.015C344.19 251.01 333.024 251.118 322.113 250.979C322.905 248.951 324.52 245.047 325.001 243.03L313.929 243.008L360.661 113.789Z"/><path fill="#6D889C" d="M400.129 122.071C401.622 121.753 403.791 121.803 405.336 121.893L452.034 250.979L418.693 251.016C418.026 248.227 416.878 245.721 416.181 243.039L443.888 242.989C437.179 225.294 430.772 206.888 424.318 189.063L400.129 122.071Z"/><path fill="#6D889C" d="M354.534 220.189C360.948 220.376 368.142 220.223 374.606 220.224C384.011 220.265 393.417 220.243 402.822 220.155C403.483 222.607 404.659 225.541 405.428 228.131C394.311 228.317 383.147 228.122 372.027 228.197C369.019 228.217 365.828 228.268 362.835 228.086C360.302 235.742 357.73 243.385 355.12 251.015C344.19 251.01 333.024 251.118 322.113 250.979C322.905 248.951 324.52 245.047 325.001 243.03C332.302 242.993 339.602 243.009 346.902 243.076C349.375 235.505 352.21 227.77 354.534 220.189Z"/><path fill="#6D889C" d="M378.533 148.482C380.569 153.735 382.612 160.073 384.399 165.462C387.784 175.487 391.143 185.854 394.711 195.792C387.748 195.888 380.785 195.91 373.822 195.858L362.921 195.932C366.924 183.499 371.283 171.154 375.344 158.739C376.461 155.324 377.69 151.98 378.533 148.482Z"/><path fill="#1D405B" d="M373.822 195.858C375.149 192.201 383.072 166.829 384.399 165.462C387.784 175.487 391.143 185.854 394.711 195.792C387.748 195.888 380.785 195.91 373.822 195.858Z"/><path fill="#E5F7FD" d="M222.145 180.044C210.277 171.327 205.617 163.045 206.209 148.245C207.432 117.69 239.982 108.739 265.394 112.979C278.766 115.21 288.562 120.837 296.497 131.849C298.33 132.099 300.542 134.782 301.658 136.219C306.709 142.722 309.11 150.512 309.564 158.69C298.891 158.451 286.257 158.495 275.578 158.75C275.209 154.632 273.978 153.965 273.101 150.724C271.33 150.616 269.335 150.689 267.543 150.716C267.432 148.909 267.162 147.743 266.523 146.081C265.264 145.912 264.026 145.565 262.775 145.463C251.778 144.569 247.121 148.975 247.521 159.847C250.949 161.986 256.572 163.797 260.403 165.165C274.853 170.323 290.684 174.52 299.577 188.187C302.095 188.689 304.949 192.85 306.382 194.912C311.405 202.138 312.13 212.62 310.301 221.053C302.711 256.054 252.137 260.044 227.783 241.247C225.952 239.833 223.996 238.29 223.146 236.079C221.446 234.748 219.792 233.36 218.188 231.915C209.689 224.254 206.287 215.637 205.697 204.373C216.662 204.158 228.197 204.315 239.188 204.325C239.686 207.454 240.13 209.809 241.904 212.461C243.338 212.163 245.573 212.295 247.105 212.331C247.441 213.891 247.972 216.074 248.079 217.605C254.599 221.011 267.486 218.603 269.718 210.873C270.562 207.95 270.665 205.381 269.299 202.645C268.159 202.512 262.571 200.069 261.002 199.535C248.575 195.306 232.723 191.886 223.348 182.205C222.501 181.331 222.328 181.216 222.145 180.044Z"/><path fill="#6D889C" d="M299.577 188.187C302.095 188.689 304.949 192.85 306.382 194.912C311.405 202.138 312.13 212.62 310.301 221.053C302.711 256.054 252.137 260.044 227.783 241.247C225.952 239.833 223.996 238.29 223.146 236.079C224.819 236.762 226.61 237.731 228.271 238.53C242.812 245.233 261.133 246.184 276.269 241.086C295.727 234.532 307.059 215.461 302.131 195.371C301.501 192.802 300.457 190.646 299.577 188.187Z"/><path fill="#6D889C" d="M296.497 131.849C298.33 132.099 300.542 134.782 301.658 136.219C306.709 142.722 309.11 150.512 309.564 158.69C298.891 158.451 286.257 158.495 275.578 158.75C275.209 154.632 273.978 153.965 273.101 150.724C275.705 150.51 280.563 150.656 283.307 150.656C289.395 150.633 295.483 150.652 301.572 150.714C301.259 145.658 300.505 141.662 298.623 136.898C298.005 135.334 297.08 133.523 296.563 132.043L296.497 131.849Z"/><path fill="#6D889C" d="M247.521 159.847C240.802 157.159 237.342 150.165 240.445 143.742C245.372 133.545 262.743 135.889 266.523 146.081C265.264 145.912 264.026 145.565 262.775 145.463C251.778 144.569 247.121 148.975 247.521 159.847Z"/><path fill="#6D889C" d="M222.145 180.044C224.544 180.985 229.145 183.048 231.434 184.236C240.474 188.93 265.79 192.308 269.299 202.645C268.159 202.512 262.571 200.069 261.002 199.535C248.575 195.306 232.723 191.886 223.348 182.205C222.501 181.331 222.328 181.216 222.145 180.044Z"/><path fill="#6D889C" d="M241.904 212.461C243.338 212.163 245.573 212.295 247.105 212.331C247.441 213.891 247.972 216.074 248.079 217.605C245.357 216.642 243.454 214.816 241.904 212.461Z"/></svg>